<svg width="29" height="30" viewBox="0 0 29 30" fill="none" xmlns="http://www.w3.org/2000/svg">
<path d="M21.7162 3.05615H7.26487C4.60341 3.05615 2.44775 5.21181 2.44775 7.87327V22.3246C2.44775 24.9861 4.60341 27.1417 7.26487 27.1417H21.7162C24.3777 27.1417 26.5333 24.9861 26.5333 22.3246V7.87327C26.5333 5.21181 24.3777 3.05615 21.7162 3.05615ZM24.1248 22.3246C24.1248 23.6493 23.0409 24.7332 21.7162 24.7332H7.26487C5.94016 24.7332 4.85631 23.6493 4.85631 22.3246V7.87327C4.85631 6.54856 5.94016 5.46471 7.26487 5.46471H21.7162C23.0409 5.46471 24.1248 6.54856 24.1248 7.87327V22.3246Z" fill="#FB4545"/>
<path d="M18.5924 12.4209C18.9246 12.0887 18.9246 11.5471 18.5929 11.2137H18.5924L17.7734 10.3941C17.4399 10.063 16.8984 10.0624 16.5661 10.3947L14.0794 12.8814C13.9733 12.9875 13.8013 12.9875 13.6958 12.8814L11.2091 10.3947C10.8768 10.0624 10.3353 10.0624 10.0019 10.3947L9.18228 11.2137C8.8506 11.5471 8.8506 12.0887 9.18287 12.4209L11.6696 14.9077C11.7757 15.0138 11.7757 15.1857 11.6696 15.2912L9.18287 17.778C8.8506 18.1102 8.8506 18.6518 9.18287 18.9852L10.0019 19.8048C10.1686 19.9703 10.3872 20.0537 10.6058 20.0537C10.8244 20.0537 11.043 19.9703 11.2091 19.8042L13.6958 17.3175C13.8019 17.2114 13.9739 17.2114 14.0794 17.3175L16.5661 19.8042C16.8984 20.1365 17.4399 20.1365 17.7734 19.8042L18.5929 18.9852C18.9246 18.6518 18.9246 18.1102 18.5924 17.778L16.1056 15.2912C15.9995 15.1851 15.9995 15.0132 16.1056 14.9077L18.5924 12.4209Z" fill="#FB4545"/>
</svg>
