<svg width="33" height="22" viewBox="0 0 33 22" fill="none" xmlns="http://www.w3.org/2000/svg">
<path d="M-9.87896 11.81C-9.20385 12.2445 -8.57777 12.7507 -8.01164 13.32C-7.00376 14.3803 -6.40991 15.7671 -6.33811 17.2282C-6.28778 17.8725 -6.28526 18.5243 -6.1997 19.1635C-6.05122 20.2708 -5.56552 21.1491 -4.4104 21.5266H-18C-16.9279 21.0736 -16.2258 20.2355 -15.652 19.2616C-15.3139 18.6503 -15.039 18.0061 -14.8316 17.3389C-13.3837 13.1614 -11.9375 8.98303 -10.493 4.80381C-10.2773 4.24755 -10.1656 3.65642 -10.1633 3.05981C-10.196 2.19159 -10.5484 1.51462 -11.3512 1.11448C-11.4735 1.06077 -11.5819 0.979871 -11.6683 0.87793H1.28465C1.20664 1.00879 1.0506 1.00376 0.93232 1.03396C0.404567 1.15333 -0.0825117 1.40938 -0.480052 1.77645C-0.877592 2.14351 -1.17161 2.60867 -1.33261 3.12524C-2.14631 5.47406 -2.95749 7.82288 -3.76615 10.1717C-3.90205 10.5618 -3.88192 10.5844 -3.45662 10.5819C-1.59882 10.5436 0.239204 10.9692 1.89114 11.8201C3.17424 12.5289 4.33219 13.4437 5.31875 14.5279C6.2373 15.4918 7.12062 16.4883 8.04924 17.4472C8.73554 18.1905 9.54524 18.8094 10.4425 19.2767C11.3676 19.7156 12.3807 19.9377 13.4046 19.926C13.3074 20.1001 13.1498 20.2326 12.9616 20.2985C11.5815 21.053 10.044 21.4745 8.47203 21.5291C6.32239 21.6423 4.17055 21.3521 2.1277 20.6734C0.0112478 19.9537 -1.7554 18.6979 -3.3182 17.1276C-4.54126 15.8995 -5.66366 14.5732 -7.00752 13.4684C-7.85897 12.7519 -8.83132 12.1929 -9.87896 11.8176M-4.79041 11.5307C-4.81837 11.5093 -4.8499 11.4931 -4.88352 11.4828C-4.91372 11.4828 -4.92127 11.508 -4.88352 11.5156C-4.84754 11.5193 -4.81128 11.5193 -4.77531 11.5156C-4.74533 11.5398 -4.71234 11.5601 -4.67716 11.576C-3.04394 12.0853 -1.51556 12.884 -0.16491 13.934C1.32995 15.0438 2.71659 16.292 4.19131 17.427C5.51059 18.4955 7.01071 19.3189 8.62051 19.8581C8.81742 19.9201 9.01732 19.9721 9.21946 20.0141C9.44761 20.0878 9.68709 20.1202 9.92663 20.1097C9.01549 19.8398 8.14141 19.4577 7.32447 18.9722C5.74657 18.0134 4.3876 16.7727 2.98083 15.5975C1.32491 14.2159 -0.406508 12.9601 -2.43488 12.1699C-3.18799 11.8526 -3.98021 11.6376 -4.79041 11.5307Z" fill="#016324"/>
<path d="M12.6846 0C12.8183 0.387242 12.8781 0.796148 12.8608 1.20545C12.9464 3.23886 12.5613 5.14644 11.2779 6.79229C10.2712 8.09085 8.9173 8.90119 7.37714 9.42212C6.10808 9.83326 4.78909 10.0703 3.45629 10.1268C1.43155 10.2276 -0.598155 10.1128 -2.59863 9.78451L-1.78074 9.53285C-0.873064 9.23977 -0.105231 8.62246 0.375981 7.79892C0.74592 7.20501 1.08314 6.59096 1.5009 6.03731C2.34899 4.89478 3.51417 4.19767 4.81021 3.69436C6.10626 3.19104 7.48787 2.90919 8.83676 2.56945C10.3467 2.19196 11.6226 1.47724 12.5034 0.153516C12.5265 0.122416 12.5517 0.0929815 12.5789 0.0654338C12.6108 0.0440851 12.6445 0.0255595 12.6796 0.0100685M0.559695 9.63603C2.65853 9.7669 4.74478 9.73166 6.77064 9.07483C9.06074 8.33243 10.7972 6.95082 11.7711 4.70099C12.1216 3.89672 12.3481 3.04398 12.443 2.17182C12.3927 2.22467 12.3701 2.23725 12.3625 2.25738C12.3399 2.31778 12.3222 2.3807 12.3046 2.44362C11.7961 4.34377 10.6466 6.00981 9.05067 7.15971C7.20853 8.51112 5.09962 9.15285 2.86237 9.42464C2.09985 9.53285 1.33229 9.58067 0.564725 9.62596L0.559695 9.63603Z" fill="#5ABA01"/>
<path d="M17.28 21.9926C17.1692 21.5382 17.0852 21.0777 17.0283 20.6135C16.8654 19.685 16.7762 18.745 16.7616 17.8024C16.7465 16.3529 16.9176 14.936 17.6097 13.6249C18.2403 12.4565 19.2194 11.5135 20.4106 10.9271C21.3011 10.4735 22.2457 10.1352 23.2217 9.92048C23.272 9.92048 23.3374 9.92048 23.3802 9.83491C21.1556 9.42974 19.1272 9.81729 17.3178 11.2316C17.9368 8.62443 20.1615 4.70861 25.7911 3.60635C25.0996 3.61678 24.4098 3.67902 23.7275 3.79257C22.1649 4.00671 20.6555 4.50843 19.2757 5.27233C17.1975 6.4563 15.6433 8.38168 14.9245 10.6629C14.2953 12.5126 14.1393 14.4227 14.2022 16.3579C14.2364 17.2669 14.3264 18.1729 14.4715 19.0708C14.4715 19.1111 14.4715 19.1488 14.4866 19.2017C14.3884 19.174 14.3834 19.096 14.3582 19.0381C13.7124 17.5073 13.2642 15.9006 13.0244 14.2566C12.6621 11.5739 12.9515 8.99689 14.3431 6.61871C15.4756 4.68345 17.1114 3.30183 19.107 2.3103C21.1125 1.34644 23.277 0.756304 25.4942 0.568818C27.6651 0.366942 29.8516 0.403227 32.0146 0.67703C32.0427 0.681965 32.0705 0.688694 32.0977 0.697167C32.0977 0.752532 32.0675 0.762593 32.0373 0.770143C31.0891 1.02944 30.2541 1.59698 29.6641 2.38328C28.8337 3.42011 28.3153 4.62305 27.8597 5.85366C27.1954 7.65051 26.6694 9.49517 26.0377 11.3046C25.3331 13.3179 24.5077 15.2833 23.3098 17.0676C21.9643 19.1265 20.0666 20.7652 17.8336 21.7963C17.6952 21.8592 17.5543 21.9171 17.4134 21.9749C17.3728 21.9857 17.3316 21.9941 17.2901 22.0001" fill="#5ABA01"/>
</svg>
