<svg width="41" height="40" viewBox="0 0 41 40" fill="none" xmlns="http://www.w3.org/2000/svg">
<path d="M3.933 27.2249C5.13312 27.2249 6.05172 26.3062 6.05172 25.1359V13.9348C6.05172 12.7495 5.13312 11.816 3.933 11.816C2.74771 11.816 1.8291 12.7495 1.8291 13.9348V25.1359C1.8291 26.3062 2.74771 27.2249 3.933 27.2249ZM10.9707 30.4994C12.9413 30.4994 14.3192 29.1807 14.3192 27.3138V11.7716C14.3192 9.88993 12.9413 8.57129 10.9707 8.57129C9.01496 8.57129 7.63706 9.88993 7.63706 11.7716V27.3138C7.63706 29.1807 9.01496 30.4994 10.9707 30.4994ZM16.0379 22.3948H25.2387V16.6758H16.0379V22.3948ZM30.3058 30.4994C32.2764 30.4994 33.6544 29.1807 33.6544 27.3138V11.7716C33.6544 9.88993 32.2764 8.57129 30.3058 8.57129C28.3502 8.57129 26.9722 9.88993 26.9722 11.7716V27.3138C26.9722 29.1807 28.3502 30.4994 30.3058 30.4994ZM37.1955 27.2249C38.3808 27.2249 39.3141 26.3062 39.3141 25.1359V13.9348C39.3141 12.7495 38.3808 11.816 37.1955 11.816C36.0102 11.816 35.0915 12.7495 35.0915 13.9348V25.1359C35.0915 26.3062 36.0102 27.2249 37.1955 27.2249Z" fill="#262626"/>
</svg>
