<svg width="101" height="45" viewBox="0 0 101 45" fill="none" xmlns="http://www.w3.org/2000/svg">
<path d="M16.6444 24.2609C17.9946 25.1298 19.2468 26.1423 20.3791 27.2808C22.3948 29.4014 23.5825 32.1751 23.7261 35.0973C23.8268 36.3858 23.8318 37.6894 24.0029 38.9678C24.2999 41.1824 25.2713 42.939 27.5815 43.694H0.402344C2.54648 42.788 3.95074 41.112 5.09831 39.1641C5.77451 37.9414 6.3243 36.653 6.73913 35.3188C9.63489 26.9637 12.5273 18.6069 15.4163 10.2485C15.8477 9.13596 16.0712 7.95371 16.0757 6.76049C16.0102 5.02404 15.3056 3.67011 13.7 2.86983C13.4554 2.76241 13.2385 2.60061 13.0658 2.39673H38.9716C38.8156 2.65845 38.5035 2.64839 38.267 2.70878C37.2115 2.94752 36.2373 3.45964 35.4422 4.19376C34.6472 4.92789 34.0591 5.8582 33.7371 6.89136C32.1097 11.589 30.4874 16.2866 28.87 20.9843C28.5982 21.7644 28.6385 21.8097 29.4891 21.8047C33.2047 21.7282 36.8808 22.5793 40.1846 24.281C42.7508 25.6987 45.0667 27.5283 47.0398 29.6967C48.8769 31.6244 50.6436 33.6176 52.5008 35.5352C53.8734 37.0218 55.4928 38.2597 57.2874 39.1943C59.1376 40.0721 61.1637 40.5162 63.2114 40.4929C63.0172 40.8411 62.702 41.1062 62.3256 41.2378C59.5653 42.747 56.4904 43.5898 53.3464 43.699C49.0471 43.9255 44.7434 43.345 40.6577 41.9877C36.4248 40.5482 32.8916 38.0367 29.7659 34.896C27.3198 32.4398 25.075 29.7873 22.3873 27.5777C20.6844 26.1447 18.7397 25.0266 16.6444 24.276M26.8215 23.7022C26.7656 23.6595 26.7026 23.6272 26.6353 23.6066C26.5749 23.6066 26.5598 23.6569 26.6353 23.672C26.7073 23.6794 26.7798 23.6794 26.8517 23.672C26.9117 23.7205 26.9777 23.7611 27.048 23.7928C30.3145 24.8114 33.3712 26.4088 36.0725 28.5089C39.0622 30.7285 41.8355 33.225 44.785 35.4949C47.4235 37.6319 50.4238 39.2786 53.6434 40.357C54.0372 40.481 54.437 40.5852 54.8413 40.669C55.2976 40.8165 55.7765 40.8813 56.2556 40.8603C54.4333 40.3204 52.6852 39.5562 51.0513 38.5853C47.8955 36.6677 45.1776 34.1863 42.364 31.8358C39.0522 29.0726 35.5893 26.561 31.5326 24.9806C30.0264 24.346 28.4419 23.916 26.8215 23.7022Z" fill="#016324"/>
<path d="M61.7716 0.640137C62.039 1.41462 62.1585 2.23243 62.1239 3.05104C62.2951 7.11785 61.525 10.933 58.9581 14.2247C56.9448 16.8218 54.2369 18.4425 51.1566 19.4844C48.6185 20.3067 45.9805 20.7807 43.3149 20.8937C39.2655 21.0952 35.206 20.8658 31.2051 20.2092L32.8409 19.7058C34.6562 19.1197 36.1919 17.8851 37.1543 16.238C37.8942 15.0502 38.5686 13.8221 39.4041 12.7148C41.1003 10.4297 43.4307 9.03548 46.0228 8.02885C48.6149 7.02221 51.3781 6.45851 54.0759 5.77903C57.0958 5.02405 59.6476 3.59462 61.4092 0.947169C61.4553 0.884969 61.5058 0.8261 61.5602 0.771004C61.624 0.728307 61.6913 0.691256 61.7616 0.660274M37.5217 19.9122C41.7194 20.1739 45.8919 20.1035 49.9436 18.7898C54.5238 17.305 57.9967 14.5418 59.9446 10.0421C60.6455 8.43358 61.0986 6.72811 61.2884 4.98378C61.1878 5.08947 61.1425 5.11464 61.1274 5.1549C61.0821 5.2757 61.0468 5.40154 61.0116 5.52737C59.9945 9.32767 57.6955 12.6598 54.5037 14.9596C50.8194 17.6624 46.6016 18.9458 42.1271 19.4894C40.602 19.7058 39.0669 19.8015 37.5318 19.8921L37.5217 19.9122Z" fill="#5ABA01"/>
<path d="M70.9624 44.625C70.7408 43.7163 70.5727 42.7953 70.459 41.8668C70.1332 40.0098 69.9548 38.1299 69.9255 36.2448C69.8953 33.3457 70.2376 30.512 71.6217 27.8897C72.883 25.5528 74.8411 23.6669 77.2236 22.4941C79.0045 21.5868 80.8937 20.9103 82.8457 20.4808C82.9464 20.4808 83.0772 20.4808 83.1628 20.3097C78.7134 19.4994 74.6567 20.2745 71.0378 23.1031C72.276 17.8888 76.7253 10.0571 87.9846 7.85259C86.6015 7.87345 85.2219 7.99794 83.8574 8.22504C80.7322 8.65331 77.7134 9.65674 74.9537 11.1846C70.7973 13.5525 67.689 17.4033 66.2513 21.9656C64.993 25.665 64.6809 29.4852 64.8068 33.3557C64.8752 35.1736 65.0551 36.9856 65.3453 38.7815C65.3453 38.862 65.3453 38.9375 65.3755 39.0432C65.1792 38.9879 65.1691 38.8318 65.1188 38.7161C63.8271 35.6546 62.9307 32.441 62.4512 29.153C61.7265 23.7876 62.3053 18.6337 65.0886 13.8773C67.3536 10.0068 70.6251 7.24356 74.6164 5.26048C78.6274 3.33278 82.9563 2.1525 87.3907 1.77753C91.7325 1.37378 96.1056 1.44635 100.432 1.99395C100.488 2.00382 100.543 2.01728 100.598 2.03423C100.598 2.14496 100.537 2.16508 100.477 2.18018C98.5805 2.69877 96.9106 3.83385 95.7306 5.40645C94.0697 7.48012 93.0329 9.88599 92.1218 12.3472C90.7931 15.9409 89.7412 19.6302 88.4778 23.2491C87.0685 27.2756 85.4177 31.2066 83.0219 34.7751C80.331 38.8929 76.5356 42.1703 72.0696 44.2324C71.7928 44.3583 71.511 44.474 71.2291 44.5898C71.1479 44.6112 71.0656 44.6281 70.9825 44.6401" fill="#5ABA01"/>
</svg>
