<svg width="34" height="26" viewBox="0 0 34 26" fill="none" xmlns="http://www.w3.org/2000/svg">
<path d="M0.196289 25.9409V18.5356C0.196289 16.406 0.58508 14.1916 1.36266 11.8926C2.16381 9.56936 3.24771 7.37922 4.61437 5.32219C6.00459 3.24095 7.55975 1.48642 9.27985 0.0585938L15.2177 4.01536C13.8275 6.1692 12.6612 8.41984 11.7186 10.7673C10.7997 13.0905 10.352 15.6558 10.3755 18.463V25.9409H0.196289ZM18.116 25.9409V18.5356C18.116 16.406 18.5048 14.1916 19.2824 11.8926C20.0835 9.56936 21.1674 7.37922 22.5341 5.32219C23.9243 3.24095 25.4795 1.48642 27.1996 0.0585938L33.1375 4.01536C31.7472 6.1692 30.5809 8.41984 29.6383 10.7673C28.7194 13.0905 28.2717 15.6558 28.2952 18.463V25.9409H18.116Z" fill="#356554"/>
</svg>
