<svg width="34" height="34" viewBox="0 0 34 34" fill="none" xmlns="http://www.w3.org/2000/svg">
<path d="M16.497 31.1587C16.7247 31.1587 17.0804 31.0733 17.4362 30.8883C25.5329 26.6478 28.1371 24.5275 28.1371 19.419V8.68966C28.1371 7.22398 27.5109 6.75439 26.3157 6.25634C24.6508 5.57331 19.3288 3.63804 17.6781 3.06885C17.2939 2.94078 16.8954 2.86963 16.497 2.86963C16.0986 2.86963 15.7001 2.95501 15.3301 3.06885C13.6653 3.60958 8.34326 5.58754 6.67836 6.25634C5.49728 6.74016 4.85693 7.22398 4.85693 8.68966V19.419C4.85693 24.5275 7.60331 26.4059 15.5578 30.8883C15.9278 31.0876 16.2693 31.1587 16.497 31.1587ZM10.0793 17.4837C10.0793 17.313 10.1647 17.0995 10.3212 16.9146L18.3611 6.82554C18.973 6.05713 19.9976 6.56941 19.6276 7.52281L16.9808 14.6378H21.947C22.3312 14.6378 22.6159 14.9081 22.6159 15.2924C22.6159 15.4631 22.5305 15.6766 22.374 15.8615L14.3341 25.9506C13.7222 26.719 12.7118 26.2066 13.0676 25.2675L15.7286 18.1383H10.7481C10.3781 18.1383 10.0793 17.8679 10.0793 17.4837Z" fill="#262626"/>
</svg>
