<svg width="34" height="34" viewBox="0 0 34 34" fill="none" xmlns="http://www.w3.org/2000/svg">
<path d="M3.33684 19.4712H4.63177V16.6109H3.33684V19.4712ZM10.0676 32.8757C11.8463 32.8757 12.6717 31.2393 11.704 29.5032L6.38205 20.0973C5.92669 19.3145 5.24366 18.9589 4.38986 18.9589C3.05225 18.9589 2.32652 19.9549 2.44036 21.2783C2.72496 22.9717 3.86335 25.6753 5.24366 27.8953C7.42083 31.5808 8.68729 32.8757 10.0676 32.8757ZM30.8148 19.4712V16.6109H29.5199V19.4712H30.8148ZM24.084 32.8757C25.4643 32.8757 26.7308 31.5808 28.908 27.8953C30.2741 25.6753 31.4267 22.9717 31.7113 21.2783C31.8251 19.9549 31.0995 18.9589 29.7618 18.9589C28.908 18.9589 28.225 19.3145 27.7696 20.0973L22.4477 29.5032C21.4658 31.2393 22.3054 32.8757 24.084 32.8757ZM2.85303 16.369C2.85303 17.0377 3.27992 17.4505 3.94873 17.4505C4.61753 17.4505 5.01598 17.0377 5.01598 16.369C5.08712 8.69908 9.65493 3.83245 17.0687 3.83245C24.4968 3.83245 29.0503 8.69908 29.1214 16.369C29.1214 17.0377 29.5341 17.4505 30.2029 17.4505C30.8718 17.4505 31.2844 17.0377 31.2844 16.369C31.2844 7.64607 25.9197 1.65527 17.0687 1.65527C8.21771 1.65527 2.85303 7.64607 2.85303 16.369Z" fill="#262626"/>
<path d="M14.3223 30.0584C15.2329 29.5319 15.4749 28.3508 14.8915 27.3404L10.096 18.8737C9.51256 17.8633 8.37416 17.4933 7.47768 18.0198C6.92272 18.3187 6.79464 18.8452 7.07925 19.3433L12.9704 29.7026C13.2693 30.2149 13.7815 30.3572 14.3223 30.0584ZM19.8292 30.0584C20.37 30.3572 20.8823 30.2149 21.1669 29.7026L27.058 19.3433C27.3568 18.8452 27.2288 18.3187 26.6738 18.0198C25.7631 17.4933 24.6389 17.8633 24.0414 18.8737L19.2458 27.3404C18.6624 28.3508 18.9185 29.5319 19.8292 30.0584ZM8.75837 8.78467C11.0921 7.51821 13.8242 6.89209 17.0687 6.89209C20.3273 6.89209 23.0595 7.51821 25.3789 8.78467C23.5148 6.39404 20.8539 5.19873 17.0687 5.19873C13.2977 5.19873 10.6367 6.39404 8.75837 8.78467Z" fill="#262626"/>
</svg>
