<svg width="34" height="36" viewBox="0 0 34 36" fill="none" xmlns="http://www.w3.org/2000/svg">
<path d="M12.1628 32.9992C13.3581 32.9992 14.098 32.3304 14.0838 31.1636L13.7992 15.1833C13.7992 14.6853 14.0126 14.3153 14.4538 14.1161C16.3321 13.2907 17.1432 12.4228 17.0436 9.93248L16.6452 1.19531C16.6167 0.569196 16.2467 0.213448 15.6633 0.213448C15.1083 0.213448 14.7668 0.583427 14.7668 1.22377L14.8664 9.71903C14.8664 10.2171 14.5534 10.5301 14.0838 10.5301C13.6 10.5301 13.2584 10.2313 13.2584 9.76172L13.1162 0.967634C13.1019 0.355748 12.7462 0 12.1628 0C11.5793 0 11.2378 0.355748 11.2236 0.967634L11.0813 9.76172C11.0813 10.2313 10.7398 10.5301 10.2559 10.5301C9.78636 10.5301 9.45907 10.2171 9.45907 9.71903L9.55868 1.22377C9.55868 0.583427 9.23139 0.213448 8.6622 0.213448C8.07877 0.213448 7.70879 0.569196 7.68033 1.19531L7.29612 9.93248C7.18228 12.4228 7.99338 13.2907 9.87173 14.1161C10.3129 14.3153 10.5263 14.6853 10.5263 15.1833L10.2559 31.1636C10.2417 32.3304 10.9674 32.9992 12.1628 32.9992ZM23.2905 20.5906L22.9917 31.0924C22.9491 32.3304 23.7032 32.9992 24.8843 32.9992C26.0938 32.9992 26.8338 32.3873 26.8338 31.2489V1.06724C26.8338 0.341518 26.3357 0 25.8234 0C25.2827 0 24.927 0.284598 24.4717 0.953404C22.1806 4.16936 20.6723 10.1886 20.6723 15.8806V16.5778C20.6723 17.5597 21.028 18.2854 21.7395 18.755L22.5791 19.3243C23.0913 19.6799 23.319 20.0785 23.2905 20.5906Z" fill="#262626"/>
</svg>
