<svg width="34" height="36" viewBox="0 0 34 36" fill="none" xmlns="http://www.w3.org/2000/svg">
<path d="M10.0997 33.661H23.9001C26.59 33.661 27.9284 32.2683 27.9284 29.4561V9.14189C27.9284 6.32975 26.59 4.93708 24.03 4.93708H23.7312C23.7312 4.99065 23.7312 5.0576 23.7312 5.11117V6.69132C23.7312 8.37859 22.6266 9.5704 21.0153 9.5704H12.9845C11.3732 9.5704 10.2686 8.37859 10.2686 6.69132V5.11117C10.2686 5.0576 10.2686 4.99065 10.2686 4.93708H9.96971C7.40975 4.93708 6.07129 6.32975 6.07129 9.14189V29.4561C6.07129 32.2683 7.40975 33.661 10.0997 33.661ZM12.9845 8.01703H21.0153C21.7689 8.01703 22.2238 7.52156 22.2238 6.69132V5.28525C22.2238 4.455 21.7689 3.95953 21.0153 3.95953H19.8197C19.7288 2.44633 18.5072 1.21436 16.9999 1.21436C15.4925 1.21436 14.271 2.44633 14.18 3.95953H12.9845C12.2308 3.95953 11.776 4.455 11.776 5.28525V6.69132C11.776 7.52156 12.2308 8.01703 12.9845 8.01703ZM16.9999 5.23168C16.3761 5.23168 15.8693 4.69605 15.8693 4.06666C15.8693 3.4105 16.3761 2.88824 16.9999 2.88824C17.6237 2.88824 18.1304 3.4105 18.1304 4.06666C18.1304 4.69605 17.6237 5.23168 16.9999 5.23168Z" fill="#262626"/>
</svg>
