<svg width="29" height="30" viewBox="0 0 29 30" fill="none" xmlns="http://www.w3.org/2000/svg">
<path d="M21.7162 2.83496H7.26487C4.60341 2.83496 2.44775 4.99062 2.44775 7.65208V22.1034C2.44775 24.7649 4.60341 26.9206 7.26487 26.9206H21.7162C24.3777 26.9206 26.5333 24.7649 26.5333 22.1034V7.65208C26.5333 4.99062 24.3777 2.83496 21.7162 2.83496ZM24.1248 22.1034C24.1248 23.4281 23.0409 24.512 21.7162 24.512H7.26487C5.94016 24.512 4.85631 23.4281 4.85631 22.1034V7.65208C4.85631 6.32737 5.94016 5.24352 7.26487 5.24352H21.7162C23.0409 5.24352 24.1248 6.32737 24.1248 7.65208V22.1034Z" fill="#30A730"/>
<path d="M18.4528 10.8192L12.877 16.395L10.5166 14.0346C10.0469 13.565 9.28823 13.565 8.81856 14.0346C8.34889 14.5043 8.34889 15.263 8.81856 15.7327L12.034 18.9481C12.2628 19.1769 12.5639 19.2973 12.889 19.2973C13.2142 19.2973 13.5153 19.1649 13.7441 18.9481L20.1629 12.5293C20.6325 12.0596 20.6325 11.3009 20.1629 10.8313C19.6932 10.3616 18.9345 10.3616 18.4648 10.8313L18.4528 10.8192Z" fill="#30A730"/>
</svg>
